Coordinates
version=1
nRows=29
nColumns=24
inDegrees=yes

Units are S.I. units (second, meters, Newtons, ...)
Angles are in degrees.

endheader
time	pelvis_tilt	pelvis_list	pelvis_rotation	pelvis_tx	pelvis_ty	pelvis_tz	hip_flexion_r	hip_adduction_r	hip_rotation_r	knee_angle_r	ankle_angle_r	subtalar_angle_r	mtp_angle_r	hip_flexion_l	hip_adduction_l	hip_rotation_l	knee_angle_l	ankle_angle_l	subtalar_angle_l	mtp_angle_l	lumbar_extension	lumbar_bending	lumbar_rotation
      2.13500000	     14.36674330	     -4.78932172	      4.19106492	      0.92319386	      0.91555739	      0.30281826	     13.85913672	      5.57631599	     -5.84254481	    -30.40608614	     14.18879877	      0.36595934	     31.47278261	    -15.47904802	     -8.26139560	     -1.84453949	    -55.44940649	     11.07731990	      1.16633835	     50.41443526	    -27.77544115	     10.34239957	      5.62511485
      2.14000000	     13.64563286	     -5.39990546	      4.49699023	      0.92913343	      0.91480431	      0.30316628	     14.32981956	      6.30698228	     -5.86564801	    -30.41455265	     14.53664381	     -0.24685227	     31.29282575	    -13.29311796	     -8.90697662	     -1.22319910	    -57.92179605	     11.39257989	      0.47100567	     49.43562664	    -26.98918727	     11.14279521	      5.61490184
      2.14500000	     13.11043534	     -6.00619340	      4.82164417	      0.93513939	      0.91448394	      0.30364939	     14.50870419	      7.07111521	     -5.83342068	    -30.24925108	     14.80081176	     -0.99093574	     30.61202366	    -11.36720176	     -9.50759712	     -0.52125038	    -60.16610767	     12.15449251	      0.13035860	     46.61236270	    -26.37894042	     11.93013696	      5.58218277
      2.15000000	     12.65799171	     -6.48676606	      5.12821121	      0.94101994	      0.91439500	      0.30399097	     14.59720131	      7.65225783	     -5.88467783	    -30.08494248	     15.01116065	     -1.45302987	     30.31020666	     -9.53336433	     -9.93132198	      0.15321084	    -62.24435154	     12.60257339	     -0.26228160	     46.62002741	    -25.86508327	     12.59055161	      5.48982230
      2.15500000	     12.27837685	     -6.87291393	      5.41068519	      0.94676997	      0.91459613	      0.30409493	     14.60108238	      8.09032432	     -5.99681568	    -29.93610562	     15.22443539	     -1.79212485	     29.92929554	     -7.83568117	    -10.19295644	      0.81772867	    -64.07876541	     12.90517352	     -0.88760380	     46.67511747	    -25.43774452	     13.17451321	      5.43379767
      2.16000000	     11.95639559	     -7.21795042	      5.69438845	      0.95250914	      0.91502586	      0.30435174	     14.51023223	      8.48958742	     -6.12532065	    -29.73598471	     15.43169866	     -1.83742909	     29.52880353	     -6.20539377	    -10.44311022	      1.42717261	    -65.78806734	     13.10648165	     -1.45844845	     46.57871146	    -25.08681458	     13.69637697	      5.33845191
      2.16500000	     11.63564940	     -7.59377764	      5.86896268	      0.95837101	      0.91546335	      0.30491080	     14.38455105	      8.95537555	     -6.19151392	    -29.47891459	     15.63162043	     -1.86832664	     29.10414097	     -4.60549060	    -10.74134288	      1.91115394	    -67.39262592	     13.33323457	     -1.93060334	     46.40275593	    -24.73943925	     14.18023037	      5.29395077
      2.17000000	     11.37953342	     -7.88256489	      6.05684066	      0.96423522	      0.91606464	      0.30527718	     14.19095168	      9.29996907	     -6.34224582	    -29.26369407	     15.90420419	     -1.75902268	     28.73841112	     -3.05946822	    -10.95977850	      2.35091660	    -68.91254395	     13.50233278	     -2.25048135	     46.18802867	    -24.45427450	     14.58427481	      5.18258655
      2.17500000	     11.09825568	     -8.15514230	      6.23853850	      0.97002520	      0.91664573	      0.30569131	     14.00638996	      9.62549356	     -6.48175482	    -29.00945568	     16.17735572	     -1.73061198	     28.35630261	     -1.46748094	    -11.18050891	      2.74073824	    -70.34724335	     13.72876694	     -2.36645050	     46.07698524	    -24.14018046	     14.96734197	      5.06119571
      2.18000000	     10.65421119	     -8.39380527	      6.40355871	      0.97564303	      0.91698952	      0.30607911	     14.00997830	      9.88240890	     -6.62548536	    -28.75240417	     16.41109265	     -1.62125913	     27.96117915	      0.32937192	    -11.31297360	      3.16982631	    -71.73445937	     14.04213496	     -2.37426501	     46.03052462	    -23.65388851	     15.30907082	      4.96092738
      2.18500000	     10.29925688	     -8.61057002	      6.59649457	      0.98121461	      0.91745377	      0.30644663	     13.89765587	     10.11827936	     -6.83498209	    -28.45759729	     16.66251624	     -1.53569663	     27.63197163	      2.02062374	    -11.39339300	      3.64342346	    -72.99844213	     14.30800907	     -2.36436245	     45.92162101	    -23.26676811	     15.62176828	      4.80674241
      2.19000000	     10.01441735	     -8.82912292	      6.74644144	      0.98678490	      0.91797004	      0.30676594	     13.73345841	     10.36397917	     -7.01469666	    -28.21237346	     16.92370052	     -1.46963799	     27.43292767	      3.59192779	    -11.43946751	      4.05878377	    -74.13635002	     14.56334372	     -2.35703481	     45.81332816	    -22.96654080	     15.93095752	      4.70709149
      2.19500000	      9.70628930	     -9.02094049	      6.79500518	      0.99257469	      0.91857081	      0.30717965	     13.53136700	     10.60296830	     -7.10991804	    -27.88989362	     17.15231891	     -1.35136357	     27.30762976	      5.10126041	    -11.44294209	      4.36875136	    -75.10930476	     14.90161233	     -2.39011329	     45.68430850	    -22.64464565	     16.16655217	      4.64498489
      2.20000000	      9.38077370	     -9.23322781	      6.78355763	      0.99839988	      0.91915392	      0.30775920	     13.31135147	     10.89472963	     -7.11053781	    -27.49769902	     17.33801581	     -1.28197262	     27.16575252	      6.57223715	    -11.47727685	      4.61174734	    -75.94683128	     15.19638300	     -2.36911047	     45.49575508	    -22.31095534	     16.39364804	      4.68209306
      2.20500000	      9.15624052	     -9.44223897	      6.78742868	      1.00414082	      0.91987613	      0.30840650	     12.96270143	     11.20539950	     -7.09543122	    -27.06056056	     17.50725882	     -1.21507072	     27.03167222	      7.92681210	    -11.54091646	      4.82597202	    -76.68496511	     15.54182415	     -2.20542234	     45.33484463	    -22.10076669	     16.60604899	      4.71917709
      2.21000000	      8.91705986	     -9.67301117	      6.59919604	      1.01000050	      0.92063914	      0.30928716	     12.56821502	     11.58869529	     -6.83228811	    -26.54812971	     17.62010564	     -1.21739990	     26.90221562	      9.20262649	    -11.67353116	      4.80077218	    -77.28647782	     15.93242392	     -1.91241736	     45.44060590	    -21.90804935	     16.77821957	      4.97679922
      2.21500000	      8.63437797	     -9.87991044	      6.44220123	      1.01586494	      0.92125896	      0.30993087	     12.27136882	     11.88517682	     -6.76690244	    -26.14170333	     17.79424322	     -1.04904936	     26.80280460	     10.53622655	    -11.73644666	      4.84432083	    -77.81099569	     16.19682478	     -1.80565687	     45.29586197	    -21.65427386	     16.94049244	      5.15223908
      2.22000000	      8.55767279	    -10.09843251	      6.29726307	      1.02199446	      0.92235878	      0.31060890	     11.60424456	     12.25534278	     -6.52039492	    -25.49967856	     17.91753429	     -0.98769396	     26.71627338	     11.54388844	    -11.86428347	      4.85334642	    -78.13826043	     16.58599704	     -1.45690069	     45.34428110	    -21.61465272	     17.11918017	      5.34003084
      2.22500000	      8.48595596	    -10.33719239	      6.05845686	      1.02804463	      0.92337080	      0.31158847	     10.91851334	     12.67687384	     -6.14249441	    -24.83686371	     18.03326656	     -1.07276344	     26.63775834	     12.53964828	    -12.07655965	      4.72635207	    -78.41387251	     16.98277105	     -1.14354622	     45.18026867	    -21.61312150	     17.27105416	      5.62907973
      2.23000000	      8.44735690	    -10.53599647	      5.84153003	      1.03410610	      0.92448265	      0.31236007	     10.15180288	     13.02305556	     -5.82588462	    -24.10081058	     18.14634056	     -1.05825547	     26.61526377	     13.40258002	    -12.19901707	      4.63707136	    -78.50909563	     17.47057312	     -0.69736651	     45.17570598	    -21.63626819	     17.40564129	      5.95603513
      2.23500000	      8.48223496	    -10.70576203	      5.62059406	      1.04032548	      0.92563411	      0.31315856	      9.32285831	     13.33041736	     -5.62883804	    -23.44145833	     18.33638265	     -0.85100589	     26.62841613	     14.14051738	    -12.31230573	      4.51433130	    -78.51358627	     17.89002592	     -0.30081154	     45.16771484	    -21.72506434	     17.50283017	      6.31352542
      2.24000000	      8.54106480	    -10.83716096	      5.37647158	      1.04652966	      0.92693130	      0.31383526	      8.41091458	     13.60499659	     -5.28597295	    -22.69652247	     18.40853749	     -0.86777271	     26.59910017	     14.80610717	    -12.37404027	      4.35179302	    -78.39925201	     18.39757085	      0.08783633	     45.09816127	    -21.84725850	     17.56485441	      6.62781711
      2.24500000	      8.63765764	    -10.92933500	      5.03652842	      1.05267718	      0.92826343	      0.31465866	      7.47044657	     13.82825801	     -4.87744896	    -22.01199149	     18.51206712	     -0.72588149	     26.59841285	     15.36266263	    -12.42401050	      4.08262432	    -78.18460397	     18.87220565	      0.42878287	     44.86326969	    -22.04229842	     17.54435309	      6.99650071
      2.25000000	      8.81642929	    -11.13896360	      4.92690542	      1.05895775	      0.92960761	      0.31512758	      6.39287907	     14.15366791	     -4.67253519	    -21.15969077	     18.53533746	     -0.56027889	     26.61738636	     15.92726806	    -12.56422499	      4.03472067	    -77.95649614	     19.15633116	      0.72450792	     44.51805639	    -22.24129718	     17.73496068	      7.22890896
      2.25500000	      8.70780656	    -11.31955611	      4.61515852	      1.06495781	      0.93039236	      0.31585179	      5.79269767	     14.37029420	     -4.64500284	    -20.65823174	     18.66988394	      0.01282707	     26.66646877	     16.77933148	    -12.67803264	      3.85421958	    -77.72122505	     19.49396039	      1.08939004	     44.49472286	    -22.18082956	     17.83069167	      7.53444874
      2.26000000	      8.56145268	    -11.48792286	      4.17255746	      1.07093842	      0.93103366	      0.31703396	      5.21756855	     14.60945627	     -4.43285302	    -20.15354465	     18.78302801	      0.47747827	     26.65782002	     17.62655474	    -12.86524463	      3.52391189	    -77.42320016	     19.86862212	      1.52325550	     44.33837662	    -22.11109823	     17.84585722	      7.90463467
      2.26500000	      8.58619666	    -11.66223523	      3.81951681	      1.07705765	      0.93203626	      0.31797715	      4.34029907	     14.88078825	     -4.06479600	    -19.42811808	     18.77832007	      0.73325115	     26.60334086	     18.21841629	    -13.04196584	      3.23405287	    -76.96165632	     20.24318339	      1.80155817	     44.06110494	    -22.19599504	     17.91447809	      8.25765201
      2.27000000	      8.80457234	    -11.73679484	      3.52490037	      1.08326864	      0.93330783	      0.31872206	      3.22019207	     15.04601598	     -3.68613189	    -18.68793348	     18.83687838	      0.98048554	     26.53466700	     18.51695016	    -13.10117782	      2.94478653	    -76.36246023	     20.58991042	      2.02108043	     43.75418516	    -22.47301953	     17.89670405	      8.52738782
      2.27500000	      9.10292123	    -11.77250802	      3.35137981	      1.08947524	      0.93463375	      0.31912831	      1.99093317	     15.15885344	     -3.25336064	    -17.88905458	     18.93384784	      1.09581636	     26.36623118	     18.72109833	    -13.06273785	      2.73681367	    -75.64889623	     20.94246598	      2.08046759	     43.35451411	    -22.79712829	     17.90088185	      8.62629466
